<?xml version="1.0" encoding="UTF-8"?>
<svg version="1.1" xmlns="http://www.w3.org/2000/svg" width="512" height="512">
<path d="M0 0 C1.06814941 -0.0038269 2.13629883 -0.00765381 3.23681641 -0.01159668 C5.47885082 -0.0142997 7.72091766 -0.00705241 9.96289062 0.00976562 C13.36661042 0.03119717 16.76821973 0.00990732 20.171875 -0.015625 C22.36458793 -0.01298144 24.55729955 -0.00785588 26.75 0 C27.75240723 -0.00809692 28.75481445 -0.01619385 29.78759766 -0.02453613 C41.03227718 0.12243166 50.22363982 3.74970578 58.375 11.53125 C68.30772568 21.93602601 69.97717727 32.85179833 69.82910156 46.82495117 C69.82797089 48.33394338 69.82861122 49.84293778 69.83087158 51.35192871 C69.83201112 55.41539424 69.80862645 59.47837971 69.78057575 63.54173446 C69.75543406 67.80044681 69.7532101 72.05917227 69.74847412 76.31794739 C69.73608163 84.36773563 69.70331095 92.4173045 69.66307616 100.46699649 C69.61824188 109.6375418 69.5963422 118.80809803 69.57629442 127.97872579 C69.53457464 146.82969119 69.46429573 165.68045291 69.375 184.53125 C69.93796783 184.52236755 70.50093567 184.51348511 71.08096313 184.5043335 C76.95344871 184.4156693 82.82574336 184.3554369 88.69873047 184.31152344 C90.88891324 184.29143893 93.07904259 184.26416583 95.26904297 184.22949219 C98.42168376 184.18083591 101.57361404 184.15824922 104.7265625 184.140625 C105.70178864 184.11997986 106.67701477 184.09933472 107.68179321 184.07806396 C113.41730774 184.07618147 116.95064749 184.5072876 121.375 188.53125 C125.81066551 193.79083972 125.94612816 197.90457607 125.88293457 204.47558594 C125.89229451 205.97150583 125.89229451 205.97150583 125.90184355 207.49764633 C125.91779009 210.8372135 125.90516233 214.17605249 125.89257812 217.515625 C125.89799848 219.91068955 125.90512065 222.30575077 125.91381836 224.70080566 C125.9301699 230.52944118 125.92776898 236.35784556 125.9161678 242.18648815 C125.90712907 246.92410662 125.90591136 251.66166737 125.91026306 256.39929199 C125.91087599 257.07393486 125.91148893 257.74857772 125.91212043 258.44366431 C125.91339935 259.81424874 125.9146962 261.18483315 125.9160108 262.55541754 C125.92741314 275.4031677 125.91430836 288.25080364 125.89280933 301.09853506 C125.87493862 312.11913265 125.87804283 323.1395617 125.89648438 334.16015625 C125.91789724 346.96236572 125.92631454 359.76447511 125.91403532 372.56669998 C125.91276114 373.93220264 125.91150366 375.29770532 125.91026306 376.66320801 C125.90933741 377.67095107 125.90933741 377.67095107 125.90839306 378.69905257 C125.90494139 383.43021153 125.91076452 388.16130694 125.92018127 392.89245605 C125.93172807 399.26189237 125.92373492 405.63101012 125.90060425 412.00041199 C125.89531097 414.33932465 125.89684144 416.67826409 125.90565491 419.01716614 C125.91656902 422.2074452 125.90289568 425.39670041 125.88293457 428.58691406 C125.8963189 429.97864649 125.8963189 429.97864649 125.90997362 431.39849472 C125.82617147 438.29319567 123.93936723 441.96688277 119 446.90625 C113.29378993 449.46420624 107.53391624 448.83497738 101.375 448.53125 C101.42140625 450.14 101.42140625 450.14 101.46875 451.78125 C101.32462348 457.546311 99.44239592 461.33005602 95.50390625 465.5234375 C88.55721806 471.85293411 83.18722585 473.01193378 73.8203125 472.8359375 C66.91797254 472.22552648 63.13292671 469.60564822 58.5 464.59375 C53.89223048 458.90488649 53.375 456.1544361 53.375 448.53125 C24.335 448.53125 -4.705 448.53125 -34.625 448.53125 C-34.625 450.84125 -34.625 453.15125 -34.625 455.53125 C-36.41261403 462.11719643 -41.12839548 466.74401784 -46.625 470.53125 C-53.05587454 473.76826739 -61.17211876 473.65514015 -68.0703125 471.9140625 C-74.29863426 469.15406109 -78.77977759 463.82055952 -82.0625 457.96875 C-82.7945672 454.79645882 -82.65908752 451.77713934 -82.625 448.53125 C-83.56601562 448.57765625 -84.50703125 448.6240625 -85.4765625 448.671875 C-95.65327225 448.96685209 -95.65327225 448.96685209 -100.25 446.90625 C-104.12543601 443.03081399 -106.81853343 439.77502775 -107.07910156 434.17822266 C-107.07847453 432.51711796 -107.05624604 430.85592056 -107.015625 429.1953125 C-107.00996521 428.31596039 -107.00430542 427.43660828 -106.99847412 426.53060913 C-106.97619084 423.73858818 -106.92601063 420.94787908 -106.875 418.15625 C-106.85492454 416.25652903 -106.83667561 414.35678782 -106.8203125 412.45703125 C-106.77635256 407.81460334 -106.70738182 403.17314863 -106.625 398.53125 C-107.35098389 398.67127441 -108.07696777 398.81129883 -108.82495117 398.95556641 C-118.5599182 400.65927978 -128.07583768 400.93153913 -137.9375 400.90625 C-138.7737088 400.90537384 -139.6099176 400.90449768 -140.47146606 400.90359497 C-182.39849378 400.75915172 -221.94216305 386.96589753 -254.625 360.53125 C-255.17607422 360.08700684 -255.72714844 359.64276367 -256.29492188 359.18505859 C-294.54696784 328.10793652 -317.77170086 282.7657599 -322.90234375 233.88916016 C-324.78906377 212.22084271 -322.89956783 190.62952132 -317.625 169.53125 C-328.02 169.03625 -328.02 169.03625 -338.625 168.53125 C-338.625 131.57125 -338.625 94.61125 -338.625 56.53125 C-327.735 56.53125 -316.845 56.53125 -305.625 56.53125 C-300.675 71.87625 -300.675 71.87625 -295.625 87.53125 C-280.77016655 89.43336283 -280.77016655 89.43336283 -267.08984375 84.77734375 C-264.09436352 82.11821556 -261.48629922 79.1790812 -258.95556641 76.08007812 C-257.07360414 73.88940499 -254.98752559 72.17971345 -252.625 70.53125 C-251.965 70.53125 -251.305 70.53125 -250.625 70.53125 C-250.625 50.07125 -250.625 29.61125 -250.625 8.53125 C-239.735 8.53125 -228.845 8.53125 -217.625 8.53125 C-215.4852043 13.05029472 -213.34777326 17.57030336 -211.21630859 22.09326172 C-210.49015108 23.63232577 -209.76261669 25.17074097 -209.03369141 26.70849609 C-207.98760124 28.91595984 -206.94644702 31.12569189 -205.90625 33.3359375 C-205.57814331 34.02557587 -205.25003662 34.71521423 -204.9119873 35.42575073 C-202.625 40.30350659 -202.625 40.30350659 -202.625 42.53125 C-201.97241211 42.33490967 -201.31982422 42.13856934 -200.64746094 41.9362793 C-168.37648551 32.31998075 -132.93574907 27.51159529 -99.625 35.53125 C-98.79371582 35.72992676 -97.96243164 35.92860352 -97.10595703 36.13330078 C-78.25290418 40.80024414 -60.48788109 47.92451774 -43.625 57.53125 C-43.61098145 56.43623169 -43.61098145 56.43623169 -43.59667969 55.3190918 C-43.54237937 51.95167357 -43.45885118 48.585557 -43.375 45.21875 C-43.36082031 44.07083984 -43.34664063 42.92292969 -43.33203125 41.74023438 C-42.95862519 28.55900059 -39.14583919 18.7108791 -29.55859375 9.55859375 C-20.7506747 2.13725229 -11.311908 -0.09137171 0 0 Z M-19.625 23.53125 C-27.36430216 32.52769769 -27.13244476 44.3094189 -27.375 55.59375 C-27.41270508 56.25737549 -27.45041016 56.92100098 -27.48925781 57.60473633 C-28.06073058 65.89716943 -28.06073058 65.89716943 -24.5456543 73.06982422 C-21.99727563 75.10157205 -19.40102526 76.82837027 -16.625 78.53125 C-15.55521755 79.39802886 -14.50416711 80.28938677 -13.48828125 81.21875 C-11.78346787 82.76430823 -10.07510802 84.30596328 -8.36328125 85.84375 C17.62237185 111.34750083 35.44931885 145.82112545 41.92993164 181.57348633 C42.1906386 183.52447629 42.1906386 183.52447629 43.375 184.53125 C45.06108966 184.60330511 46.75000659 184.61511068 48.4375 184.59375 C49.35660156 184.58472656 50.27570313 184.57570312 51.22265625 184.56640625 C51.93292969 184.55480469 52.64320313 184.54320312 53.375 184.53125 C53.42177747 165.91142951 53.45701698 147.291621 53.47862434 128.67175388 C53.4889249 120.02569677 53.50296185 111.37967622 53.52587891 102.73364258 C53.54585021 95.19535879 53.55872531 87.6571015 53.56317699 80.118792 C53.56577804 76.12950576 53.57186611 72.14029529 53.58646011 68.1510334 C53.60010319 64.39100323 53.60420913 60.63107957 53.60121536 56.87102699 C53.60202209 54.84382387 53.61274837 52.81663217 53.62384033 50.78945923 C53.60178595 40.97077568 53.27659839 31.17115891 46.375 23.53125 C36.8717252 16.12191711 27.26363109 16.34463362 15.66943359 16.34594727 C13.5124939 16.34376265 11.35606819 16.32556898 9.19921875 16.30664062 C-1.24149611 16.26291651 -11.31316996 16.3808984 -19.625 23.53125 Z " fill="#56555B" transform="translate(362.625,15.46875)"/>
<path d="M0 0 C3.4715961 1.1571987 3.76611223 1.75690149 5.6015625 4.76953125 C6.08737793 5.56560791 6.57319336 6.36168457 7.07373047 7.18188477 C7.58564941 8.04998779 8.09756836 8.91809082 8.625 9.8125 C9.15625488 10.70960693 9.68750977 11.60671387 10.23486328 12.53100586 C20.21067468 29.70757201 27.46157137 47.86250346 31.58056641 67.30126953 C31.84737213 68.55714874 32.11417786 69.81302795 32.3890686 71.10696411 C32.59067596 72.06166595 32.79228333 73.0163678 33 74 C34.33304672 74.00546844 34.33304672 74.00546844 35.69302368 74.01104736 C44.07957954 74.0489577 52.46574772 74.10584497 60.8520298 74.18390274 C65.16324991 74.22336525 69.47426614 74.25555961 73.78564453 74.27099609 C77.94857716 74.28617096 82.11094926 74.32063065 86.27363205 74.36830902 C87.8595428 74.38311437 89.44553358 74.39104053 91.03151321 74.39188385 C93.25810328 74.39425796 95.48314981 74.42136949 97.70947266 74.45410156 C98.97522125 74.46298401 100.24096985 74.47186646 101.54507446 74.48101807 C106.82955229 75.27482635 109.72649283 77.49954271 113.14290047 81.52478409 C115.61313539 86.1473687 115.55756319 89.78384183 115.50793457 94.94433594 C115.51417453 95.94161587 115.5204145 96.9388958 115.52684355 97.96639633 C115.54279009 101.3059635 115.53016233 104.64480249 115.51757812 107.984375 C115.52299848 110.37943955 115.53012065 112.77450077 115.53881836 115.16955566 C115.5551699 120.99819118 115.55276898 126.82659556 115.5411678 132.65523815 C115.53212907 137.39285662 115.53091136 142.13041737 115.53526306 146.86804199 C115.53587599 147.54268486 115.53648893 148.21732772 115.53712043 148.91241431 C115.53839935 150.28299874 115.5396962 151.65358315 115.5410108 153.02416754 C115.55241314 165.8719177 115.53930836 178.71955364 115.51780933 191.56728506 C115.49993862 202.58788265 115.50304283 213.6083117 115.52148438 224.62890625 C115.54289724 237.43111572 115.55131454 250.23322511 115.53903532 263.03544998 C115.53776114 264.40095264 115.53650366 265.76645532 115.53526306 267.13195801 C115.53433741 268.13970107 115.53433741 268.13970107 115.53339306 269.16780257 C115.52994139 273.89896153 115.53576452 278.63005694 115.54518127 283.36120605 C115.55672807 289.73064237 115.54873492 296.09976012 115.52560425 302.46916199 C115.52031097 304.80807465 115.52184144 307.14701409 115.53065491 309.48591614 C115.54156902 312.6761952 115.52789568 315.86545041 115.50793457 319.05566406 C115.51685746 319.98348568 115.52578034 320.9113073 115.53497362 321.86724472 C115.45117147 328.76194567 113.56436723 332.43563277 108.625 337.375 C102.91878993 339.93295624 97.15891624 339.30372738 91 339 C91.04640625 340.60875 91.04640625 340.60875 91.09375 342.25 C90.94962348 348.015061 89.06739592 351.79880602 85.12890625 355.9921875 C78.18221806 362.32168411 72.81222585 363.48068378 63.4453125 363.3046875 C56.54297254 362.69427648 52.75792671 360.07439822 48.125 355.0625 C43.51723048 349.37363649 43 346.6231861 43 339 C13.96 339 -15.08 339 -45 339 C-45 341.31 -45 343.62 -45 346 C-46.78761403 352.58594643 -51.50339548 357.21276784 -57 361 C-63.43087454 364.23701739 -71.54711876 364.12389015 -78.4453125 362.3828125 C-84.67363426 359.62281109 -89.15477759 354.28930952 -92.4375 348.4375 C-93.1695672 345.26520882 -93.03408752 342.24588934 -93 339 C-93.94101562 339.04640625 -94.88203125 339.0928125 -95.8515625 339.140625 C-106.02827225 339.43560209 -106.02827225 339.43560209 -110.625 337.375 C-115.5541312 332.4458688 -117.45099109 328.77491416 -117.53497362 321.89341784 C-117.52158929 320.50752183 -117.52158929 320.50752183 -117.50793457 319.09362793 C-117.51417453 318.10043155 -117.5204145 317.10723517 -117.52684355 316.08394194 C-117.54278954 312.75819328 -117.53016256 309.43317589 -117.51757812 306.10742188 C-117.5229985 303.7222094 -117.53012069 301.33700027 -117.53881836 298.95179749 C-117.55516966 293.14722512 -117.55276911 287.34288487 -117.5411678 281.5383054 C-117.53212895 276.82023301 -117.53091141 272.10221858 -117.53526306 267.38414001 C-117.53587599 266.71227251 -117.53648893 266.04040501 -117.53712043 265.34817788 C-117.53839935 263.98323045 -117.53969621 262.61828305 -117.5410108 261.25333565 C-117.55241306 248.45852044 -117.53930849 235.66381991 -117.51780933 222.8690235 C-117.49993863 211.89390746 -117.50304284 200.91896065 -117.52148438 189.94384766 C-117.54289739 177.19437579 -117.55131446 164.4450044 -117.53903532 151.69551706 C-117.53776114 150.33563139 -117.53650366 148.97574569 -117.53526306 147.61585999 C-117.53464596 146.94679539 -117.53402886 146.27773079 -117.53339306 145.58839151 C-117.52994144 140.87676912 -117.53576442 136.16521054 -117.54518127 131.45359802 C-117.55672826 125.11042605 -117.54873458 118.76757396 -117.52560425 112.42443657 C-117.52031107 110.09519927 -117.52184127 107.76593509 -117.53065491 105.43670845 C-117.54156942 102.2595651 -117.52789522 99.08344975 -117.50793457 95.90637207 C-117.51685746 94.9824414 -117.52578034 94.05851073 -117.53497362 93.10658216 C-117.46741379 87.57075587 -116.70239503 84.38488614 -113 80 C-108.18845609 75.76125893 -105.81724907 74.87487773 -99.43896484 74.88647461 C-98.76567642 74.88632858 -98.092388 74.88618256 -97.3986969 74.8860321 C-95.16941119 74.88672973 -92.94020865 74.89451511 -90.7109375 74.90234375 C-89.16679937 74.90420846 -87.62266066 74.90563211 -86.07852173 74.90663147 C-82.01129528 74.91045246 -77.94410445 74.92027918 -73.87689209 74.93133545 C-69.7278288 74.94155856 -65.57875975 74.94613102 -61.4296875 74.95117188 C-53.28644197 74.96190181 -45.14322542 74.97897323 -37 75 C-37.0466404 73.56628555 -37.0466404 73.56628555 -37.09422302 72.10360718 C-37.20251442 68.5230573 -37.2701488 64.94264884 -37.32615662 61.3609314 C-37.35583122 59.81734802 -37.39621173 58.27392888 -37.44792175 56.73092651 C-37.95282462 41.26620512 -37.95282462 41.26620512 -32.70114136 35.1499939 C-30.45270291 33.05749519 -28.12114313 31.13840091 -25.65380859 29.31054688 C-23.1426076 27.32056652 -21.31711008 24.90787945 -19.375 22.375 C-15.29253304 17.27380284 -10.93745397 12.49868809 -6.48046875 7.7265625 C-4.2055679 5.22596282 -2.07846983 2.66470492 0 0 Z " fill="#FEA633" transform="translate(373,125)"/>
<path d="M0 0 C10.89 0 21.78 0 33 0 C35.2452095 4.73079451 37.48827454 9.4624895 39.72607422 14.19677734 C40.48721699 15.8054314 41.24957164 17.41351266 42.01318359 19.02099609 C43.11358296 21.33800389 44.209539 23.6570691 45.3046875 25.9765625 C45.6443454 26.68930328 45.9840033 27.40204407 46.33395386 28.13638306 C48.17004791 32.03732493 49.64253349 35.90256871 51 40 C52.09437007 42.4663239 53.21081909 44.90533398 54.37109375 47.33984375 C54.85558739 48.36761681 54.85558739 48.36761681 55.34986877 49.41615295 C56.37590518 51.59145168 57.40644212 53.7645775 58.4375 55.9375 C59.464234 58.10719748 60.48997618 60.2773554 61.51441956 62.44813538 C62.14958878 63.7934383 62.7861637 65.13807881 63.42442322 66.48191833 C65.38019225 70.61665951 67.22031026 74.78633777 69 79 C70.00358803 79.00879936 70.00358803 79.00879936 71.02745056 79.01777649 C78.01995625 79.08193812 85.01201137 79.16641615 92.00415039 79.26245117 C94.61020958 79.29561126 97.21633904 79.32367065 99.82250977 79.34643555 C103.5785911 79.38014489 107.33403355 79.43247112 111.08984375 79.48828125 C112.24645004 79.49467117 113.40305634 79.5010611 114.5947113 79.50764465 C122.04553781 79.64166373 128.96647325 80.2577572 135.26953125 84.54296875 C140.67752413 90.30693078 144.15054167 95.35486699 144.5 103.4375 C144.12918187 111.57302496 141.55611266 116.87645677 135.625 122.4375 C130.6483683 126.78985458 125.73859148 128.22979288 119.17822266 128.31884766 C118.05751373 128.33871735 116.93680481 128.35858704 115.78213501 128.37905884 C114.58817108 128.39061005 113.39420715 128.40216125 112.1640625 128.4140625 C110.31232925 128.44311172 110.31232925 128.44311172 108.42318726 128.4727478 C104.49052788 128.53240097 100.557839 128.57887263 96.625 128.625 C93.95439547 128.66212543 91.28384636 128.70224525 88.61328125 128.7421875 C82.07562886 128.83809096 75.53790298 128.92318029 69 129 C66.64168446 133.97721067 64.28787789 138.95653596 61.9375 143.9375 C61.40252899 145.0712204 61.40252899 145.0712204 60.85675049 146.22784424 C54.79991833 159.07539319 48.87306073 171.97799292 43.05053711 184.93334961 C42.75578995 185.58686905 42.46104279 186.24038849 42.15736389 186.91371155 C41.37102201 188.65757781 40.58748113 190.40270638 39.80419922 192.14794922 C37.30607292 197.48156717 34.63393681 202.73212639 32 208 C21.44 208 10.88 208 0 208 C0 181.6 0 155.2 0 128 C-15.18 128 -30.36 128 -46 128 C-46.99 131.63 -47.98 135.26 -49 139 C-49.58683434 140.89602722 -50.18939875 142.78746421 -50.82421875 144.66796875 C-51.10096436 145.49321045 -51.37770996 146.31845215 -51.6628418 147.16870117 C-52.000979 148.16490479 -52.33911621 149.1611084 -52.6875 150.1875 C-54.3271875 155.0446875 -54.3271875 155.0446875 -56 160 C-66.56 160 -77.12 160 -88 160 C-88 123.04 -88 86.08 -88 48 C-77.11 48 -66.22 48 -55 48 C-50.05 63.345 -50.05 63.345 -45 79 C-30.14516655 80.90211283 -30.14516655 80.90211283 -16.46484375 76.24609375 C-13.46936352 73.58696556 -10.86129922 70.6478312 -8.33056641 67.54882812 C-6.44860414 65.35815499 -4.36252559 63.64846345 -2 62 C-1.34 62 -0.68 62 0 62 C0 41.54 0 21.08 0 0 Z " fill="#EC626F" transform="translate(112,24)"/>
<path d="M0 0 C15.18 0 30.36 0 46 0 C46 26.4 46 52.8 46 80 C56.56 79.67 67.12 79.34 78 79 C82.29 69.76 86.58 60.52 91 51 C95.47432022 51 97.71673689 53.54404565 101.125 56.25 C101.77082031 56.74113281 102.41664063 57.23226562 103.08203125 57.73828125 C103.69691406 58.22167969 104.31179687 58.70507812 104.9453125 59.203125 C105.50750488 59.64301758 106.06969727 60.08291016 106.64892578 60.53613281 C108.30991661 62.33578966 108.74941635 63.57397684 109 66 C107.3046875 68.26171875 107.3046875 68.26171875 104.875 70.6875 C92.40694488 84.08485116 91.00583991 101.04394408 91.578125 118.87109375 C91.8820719 123.16386283 92.95274935 126.41379001 95.515625 129.91796875 C100.25873868 136.57080978 102.42875821 144.09097491 104.625 151.875 C104.9240625 152.89980469 105.223125 153.92460937 105.53125 154.98046875 C106.39211948 157.97827529 107.21044691 160.98267067 108 164 C108.2278418 164.86915039 108.45568359 165.73830078 108.69042969 166.63378906 C111.10531591 176.98503501 108.6537275 186.80320414 106.63574219 197.07739258 C106.2504455 199.06020737 105.88696444 201.04629814 105.5234375 203.03320312 C104.04835507 210.57969442 102.28057658 216.61623804 98 223 C97.37303223 223.96832764 96.74606445 224.93665527 96.10009766 225.93432617 C93.98964762 229.16266832 91.84426233 232.36494083 89.6875 235.5625 C88.93912709 236.67751561 88.19107801 237.79274865 87.44335938 238.90820312 C85.63206566 241.60761505 83.81755719 244.30480318 82 247 C76.92388318 246.27522229 73.09636502 244.7407525 68.6875 242.1875 C67.99962402 241.79369141 67.31174805 241.39988281 66.60302734 240.99414062 C54.43881324 233.88300756 43.24102794 225.67626537 33 216 C31.64991542 214.84935973 30.29588411 213.7033304 28.9375 212.5625 C-4.62828395 183.08356798 -23.57227847 136.16289103 -26.67773438 92.28979492 C-27.70406098 73.42360635 -28.22996899 49.38258024 -20 32 C-16.7 32 -13.4 32 -10 32 C-9.649375 30.618125 -9.29875 29.23625 -8.9375 27.8125 C-6.27368535 18.44618396 -3.07934709 9.23804126 0 0 Z " fill="#90DB5B" transform="translate(66,152)"/>
<path d="M0 0 C0 25.41 0 50.82 0 77 C-12.375 80.465 -12.375 80.465 -25 84 C-31.16088671 85.93291772 -31.16088671 85.93291772 -37.31640625 87.8828125 C-43.15901342 89.65480152 -49.0741242 91.0896504 -55.00878906 92.51611328 C-56.98590003 92.99657355 -58.95818266 93.49315884 -60.9296875 93.99609375 C-68.67819487 95.96996045 -76.43869922 97.81440246 -84.27099609 99.4296875 C-85.69614157 99.73414584 -87.11542894 100.06703938 -88.52832031 100.42407227 C-91 101 -91 101 -94.16699219 101.43334961 C-99.69642291 102.50365188 -102.95960436 103.56015605 -106.33178711 108.22705078 C-108.58764966 112.51286183 -110.23436123 117.01419956 -111.875 121.5625 C-112.50907871 123.21476318 -113.14401875 124.86669604 -113.77978516 126.51831055 C-119.51106991 141.82046986 -123.0300902 157.55638799 -125.47900391 173.6875 C-126 177 -126 177 -126.59521484 179.453125 C-127.23733721 182.30206575 -127.32244907 184.3754936 -125.96923828 186.99633789 C-124.38280917 189.2406762 -122.67492527 191.29814532 -120.875 193.375 C-119.56893527 194.96655507 -118.26561583 196.56036636 -116.96484375 198.15625 C-116.29952637 198.96191406 -115.63420898 199.76757812 -114.94873047 200.59765625 C-99.32516711 219.8579749 -86.02842308 241.303078 -74.6875 263.3125 C-73.91936478 264.79632172 -73.91936478 264.79632172 -73.13571167 266.31011963 C-64.19309854 283.88146457 -60.61731281 298.39172765 -64 318 C-74.48073275 320.02147526 -84.67108172 320.40228873 -95.3125 320.375 C-96.1487088 320.37412384 -96.9849176 320.37324768 -97.84646606 320.37234497 C-124.28881387 320.28124816 -149.91130347 315.24139171 -174 304 C-173.34 303.67 -172.68 303.34 -172 303 C-171.70512695 302.25693604 -171.41025391 301.51387207 -171.10644531 300.74829102 C-169.88046267 297.70308215 -168.32472842 295.60352519 -166.296875 293.02734375 C-155.37401159 278.54982343 -150.03394604 266.28621381 -147.45751953 248.01220703 C-147.03219909 245.21199165 -146.44968588 242.50326793 -145.80859375 239.74609375 C-142.60300151 224.02886255 -150.346735 200.1125579 -158.45703125 186.56640625 C-159.58418346 185.00398489 -160.78381791 183.49416657 -162 182 C-166.1101391 169.6695827 -163.57933328 149.84240276 -158.74609375 137.90234375 C-155.74697043 132.61506095 -151.72930757 128.28781713 -147.44140625 124.0078125 C-145.76869789 122.14615795 -145.76869789 122.14615795 -146.19873047 120.06298828 C-147.1755851 117.54792988 -148.25441352 116.62683997 -150.37890625 114.984375 C-151.05244141 114.45585937 -151.72597656 113.92734375 -152.41992188 113.3828125 C-153.12697266 112.84398437 -153.83402344 112.30515625 -154.5625 111.75 C-155.27341797 111.19570312 -155.98433594 110.64140625 -156.71679688 110.0703125 C-158.47116574 108.70449513 -160.23216424 107.34831168 -162 106 C-160.5773124 101.43779872 -158.77617839 97.14782513 -156.734375 92.8359375 C-156.41849426 92.16261383 -156.10261353 91.48929016 -155.77716064 90.79556274 C-155.10968985 89.37452305 -154.4406133 87.95423659 -153.77001953 86.53466797 C-152.76356906 84.40372951 -151.76220448 82.27046311 -150.76171875 80.13671875 C-150.10707328 78.7446494 -149.45213412 77.35271811 -148.796875 75.9609375 C-148.50601013 75.34173431 -148.21514526 74.72253113 -147.91546631 74.08456421 C-145.04155569 68.00776336 -142.0193119 62.00556564 -139 56 C-137.97761986 55.99453156 -137.97761986 55.99453156 -136.93458557 55.98895264 C-129.81225018 55.94699921 -122.69055148 55.87756317 -115.56860352 55.79248047 C-112.91385189 55.762152 -110.25970245 55.74308861 -107.60473633 55.72900391 C-103.77902996 55.70749103 -99.95431359 55.660794 -96.12890625 55.609375 C-94.95042618 55.60814636 -93.77194611 55.60691772 -92.55775452 55.60565186 C-84.48801995 55.46363793 -78.23447477 54.15791339 -71.6953125 49.28125 C-68.08398583 45.18481975 -66.64454511 42.16225508 -65.6875 36.75 C-64.53958575 31.46163206 -64.53958575 31.46163206 -62.26953125 29.51953125 C-58.89176735 28.09517298 -55.4503224 27.33069894 -51.88427734 26.51757812 C-39.91151313 23.75404853 -31.76153548 20.71927152 -22 13 C-19.5184719 11.18215955 -17.00867916 9.40508804 -14.5 7.625 C-13.92403076 7.20839111 -13.34806152 6.79178223 -12.75463867 6.36254883 C-3.93727879 0 -3.93727879 0 0 0 Z " fill="#3D9AE1" transform="translate(320,96)"/>
<path d="M0 0 C0 8.91 0 17.82 0 27 C-3.75632812 27.02578125 -7.51265625 27.0515625 -11.3828125 27.078125 C-15.02676847 27.11655353 -18.67058334 27.16171142 -22.31445312 27.20751953 C-24.84400683 27.23571932 -27.37364849 27.25693873 -29.90332031 27.27099609 C-33.54277546 27.29243829 -37.18117415 27.3390986 -40.8203125 27.390625 C-42.51282639 27.39246796 -42.51282639 27.39246796 -44.23953247 27.39434814 C-50.27290399 27.50651538 -54.39781331 27.67862164 -59 32 C-62.57964751 36.54024821 -63.50218013 39.49669358 -63.51898193 45.25131226 C-63.52648319 45.95880981 -63.53398444 46.66630737 -63.541713 47.39524424 C-63.56193061 49.75386999 -63.55389972 52.11152896 -63.54589844 54.47021484 C-63.55463672 56.16566922 -63.5651234 57.86111536 -63.57722473 59.55654907 C-63.60507416 64.15115425 -63.60848965 68.7454902 -63.60750484 73.34016752 C-63.61063485 78.14485923 -63.6362549 82.94942984 -63.65948486 87.75405884 C-63.70004165 96.84867782 -63.72038483 105.94322511 -63.73345876 115.03792059 C-63.74932987 125.39342884 -63.78774599 135.7488151 -63.82805204 146.10425258 C-63.91044661 167.40279481 -63.96454151 188.70133131 -64 210 C-66.00573627 207.37304024 -67.6654837 204.88846114 -69.09033203 201.90356445 C-69.47634583 201.10275452 -69.86235962 200.30194458 -70.2600708 199.47686768 C-70.67182556 198.61438416 -71.08358032 197.75190063 -71.5078125 196.86328125 C-72.41124531 194.99877446 -73.31608625 193.13494947 -74.22216797 191.27172852 C-74.6953949 190.29809357 -75.16862183 189.32445862 -75.65618896 188.32131958 C-84.53759538 170.12799934 -93.76185772 153.17923894 -106 137 C-106.72010254 136.03545898 -107.44020508 135.07091797 -108.18212891 134.07714844 C-111.58789976 129.52058634 -115.02186633 124.98860375 -118.51171875 120.49609375 C-119.09356934 119.7366748 -119.67541992 118.97725586 -120.27490234 118.19482422 C-121.41945172 116.73862568 -122.60256394 115.31188586 -123.82275391 113.91845703 C-124.38269043 113.25571777 -124.94262695 112.59297852 -125.51953125 111.91015625 C-126.02202393 111.34562744 -126.5245166 110.78109863 -127.04223633 110.19946289 C-128.53857197 106.76319274 -127.65291837 103.56354821 -127 100 C-126.80809082 98.78143311 -126.61618164 97.56286621 -126.41845703 96.30737305 C-123.00448002 76.69277566 -118.57396244 58.96616474 -110.23583984 40.78515625 C-108.6596032 37.23286315 -107.31394498 33.60945318 -106.00561523 29.95092773 C-105 28 -105 28 -101.75 26.125 C-100.17708214 25.70846805 -98.59094796 25.34125363 -97 25 C-95.17872385 24.52849184 -93.35747652 24.05687051 -91.53662109 23.58374023 C-88.73725187 22.86728695 -85.92907469 22.18943548 -83.12011719 21.51171875 C-79.78553473 20.7068725 -76.45439669 19.88851913 -73.125 19.0625 C-72.47297607 18.90088379 -71.82095215 18.73926758 -71.14916992 18.57275391 C-65.2301901 17.08922444 -59.36117618 15.44037864 -53.48950195 13.78100586 C-49.283684 12.60214688 -45.08509483 11.54135915 -40.8125 10.625 C-32.49123979 8.7817503 -24.39254203 6.14311556 -16.2578125 3.62109375 C-14.50530942 3.08040141 -12.75271488 2.54000538 -11 2 C-10.30358398 1.78230957 -9.60716797 1.56461914 -8.88964844 1.34033203 C-5.7133799 0.37933753 -3.37679237 0 0 0 Z " fill="#90DB5A" transform="translate(320,173)"/>
<path d="M0 0 C1.24692627 0.29801514 1.24692627 0.29801514 2.51904297 0.60205078 C21.97994371 5.4194627 39.77759322 12.79412932 57 23 C57 30.26 57 37.52 57 45 C55.700625 45.556875 54.40125 46.11375 53.0625 46.6875 C47.70998444 49.33334576 43.2327728 52.76704283 38.5625 56.4375 C28.37538903 64.37162836 19.42853699 69.29041926 6.83984375 72.12109375 C2.15154684 73.19420342 -2.41812581 74.54613607 -7 76 C-7.12375 75.38253906 -7.2475 74.76507813 -7.375 74.12890625 C-9.10467606 67.02642392 -12.08975737 61.47385239 -18 57 C-25.11293461 53.66909904 -32.17843243 53.53099684 -39.91015625 53.48828125 C-41.11820419 53.47033005 -42.32625214 53.45237885 -43.57090759 53.43388367 C-47.40140368 53.38002122 -51.23177685 53.34596135 -55.0625 53.3125 C-57.67124097 53.27930579 -60.27996577 53.2448142 -62.88867188 53.20898438 C-69.25900432 53.12430845 -75.62935315 53.05585721 -82 53 C-87.15962816 42.77133705 -92.21006602 32.503038 -97.0625 22.125 C-97.50710571 21.18938232 -97.50710571 21.18938232 -97.96069336 20.23486328 C-98.82647539 18.41278456 -99.68103004 16.58538406 -100.53515625 14.7578125 C-101.034104 13.6970752 -101.53305176 12.63633789 -102.04711914 11.54345703 C-102.51879517 10.2844458 -102.51879517 10.2844458 -103 9 C-102 7 -102 7 -98.37109375 5.6328125 C-67.52090873 -4.09819527 -31.81432918 -7.65938749 0 0 Z " fill="#90DB5B" transform="translate(263,51)"/>
<path d="M0 0 C5.22948744 4.37029366 10.10289955 8.96911804 14.90234375 13.8046875 C15.98619102 14.8906572 15.98619102 14.8906572 17.0919342 15.99856567 C19.37616922 18.28835265 21.65688312 20.58160993 23.9375 22.875 C25.49521039 24.43773161 27.05315087 26.0002339 28.61132812 27.5625 C32.41021602 31.3723531 36.20622713 35.18505379 40 39 C34.5664118 45.61072987 28.53553957 51.59214196 22.4765625 57.62109375 C21.36390615 58.73188169 20.25147284 59.8428931 19.13925171 60.95411682 C16.2316873 63.85788934 13.32113095 66.75864436 10.40991211 69.65875244 C7.43159571 72.62678263 4.45615894 75.59769662 1.48046875 78.56835938 C-4.34356123 84.38171083 -10.1707595 90.19187334 -16 96 C-21.22948744 91.62970634 -26.10289955 87.03088196 -30.90234375 82.1953125 C-31.98619102 81.1093428 -31.98619102 81.1093428 -33.0919342 80.00143433 C-35.37616922 77.71164735 -37.65688312 75.41839007 -39.9375 73.125 C-41.49521039 71.56226839 -43.05315087 69.9997661 -44.61132812 68.4375 C-48.41021602 64.6276469 -52.20622713 60.81494621 -56 57 C-50.5664118 50.38927013 -44.53553957 44.40785804 -38.4765625 38.37890625 C-37.36390615 37.26811831 -36.25147284 36.1571069 -35.13925171 35.04588318 C-32.2316873 32.14211066 -29.32113095 29.24135564 -26.40991211 26.34124756 C-23.43159571 23.37321737 -20.45615894 20.40230338 -17.48046875 17.43164062 C-11.65643877 11.61828917 -5.8292405 5.80812666 0 0 Z " fill="#ED626E" transform="translate(344,236)"/>
<path d="M0 0 C3.4715961 1.1571987 3.76611223 1.75690149 5.6015625 4.76953125 C6.33028564 5.96364624 6.33028564 5.96364624 7.07373047 7.18188477 C7.58564941 8.04998779 8.09756836 8.91809082 8.625 9.8125 C9.15625488 10.70960693 9.68750977 11.60671387 10.23486328 12.53100586 C17.31808495 24.72704893 23.04920366 37.38605212 27.375 50.8125 C27.7150708 51.86739624 27.7150708 51.86739624 28.06201172 52.94360352 C30.27608942 60.2397309 31.4855878 67.42793901 33 75 C9.9 75 -13.2 75 -37 75 C-37 42 -37 42 -31.0625 33.625 C-27.44921875 30.640625 -27.44921875 30.640625 -25.65380859 29.31054688 C-23.1426076 27.32056652 -21.31711008 24.90787945 -19.375 22.375 C-15.29253304 17.27380284 -10.93745397 12.49868809 -6.48046875 7.7265625 C-4.2055679 5.22596282 -2.07846983 2.66470492 0 0 Z " fill="#8FDB5C" transform="translate(373,125)"/>
<path d="M0 0 C4.39689238 1.12685673 8.67704258 2.56545783 12.9765625 4.015625 C14.21997406 4.42786316 15.46338562 4.84010132 16.74447632 5.26483154 C19.36746312 6.13573332 21.98778685 7.01412122 24.60644531 7.89794922 C27.95172727 9.02634439 31.30294882 10.1357434 34.65639687 11.23959732 C37.8707241 12.30054991 41.0796035 13.37753434 44.2890625 14.453125 C45.48810211 14.84808167 46.68714172 15.24303833 47.92251587 15.64996338 C49.04072723 16.03005554 50.1589386 16.41014771 51.31103516 16.80175781 C52.29141754 17.13040833 53.27179993 17.45905884 54.28189087 17.79766846 C57.3529516 19.15612502 59.55836839 20.69829338 62 23 C62.75 26.25 62.75 26.25 62 30 C60.67854309 31.82850647 60.67854309 31.82850647 58.95629883 33.72290039 C58.32084137 34.4226297 57.68538391 35.12235901 57.03067017 35.84329224 C53.72869242 39.35021382 50.3600256 42.78263177 46.94921875 46.18359375 C46.2092012 46.92456802 45.46918365 47.6655423 44.70674133 48.42897034 C43.1575284 49.97885859 41.60707273 51.52750558 40.05541992 53.07495117 C37.67314495 55.45182249 35.29631503 57.83404646 32.91992188 60.21679688 C31.4091751 61.72688365 29.89811859 63.23666062 28.38671875 64.74609375 C27.67529221 65.45954453 26.96386566 66.1729953 26.23088074 66.9080658 C25.57292007 67.5628743 24.91495941 68.2176828 24.23706055 68.89233398 C23.65860886 69.46999008 23.08015717 70.04764618 22.48417664 70.64280701 C20.35196147 72.59259345 19.08446085 72.98873855 16.1875 73.375 C12.8212769 72.97897375 11.57705763 72.32243549 9.28945923 69.88299561 C6.30554465 65.52558909 4.97423486 60.26850758 3.35546875 55.2890625 C2.94081863 54.04756439 2.52616852 52.80606628 2.09895325 51.52694702 C1.22482578 48.90576582 0.36112617 46.28145249 -0.49487305 43.65429688 C-1.58815825 40.30070809 -2.70389383 36.95513173 -3.82718372 33.61149025 C-4.90219991 30.40342372 -5.96032227 27.18988375 -7.01953125 23.9765625 C-7.41944778 22.78157135 -7.81936432 21.5865802 -8.23139954 20.3553772 C-11.6916882 9.67291565 -11.6916882 9.67291565 -11 4 C-8.13796704 -0.46477141 -4.92249209 -0.65203297 0 0 Z " fill="#5CCAF8" transform="translate(392,330)"/>
<path d="M0 0 C5.28 0 10.56 0 16 0 C16 62.37 16 124.74 16 189 C10.72 189 5.44 189 0 189 C-0.46748967 181.54964656 -0.84445145 174.10192526 -1.14135742 166.64282227 C-1.25446618 164.11134828 -1.39142442 161.58081519 -1.5534668 159.05200195 C-2.95143549 136.8291203 -2.95143549 136.8291203 1.88525391 130.43115234 C4.93430982 127.1355223 8.33713436 124.57648709 12 122 C13.54163175 118.9167365 13.29747535 116.39121901 13 113 C9.78531674 109.08647255 4.77878313 108.59292771 0 107 C0 71.69 0 36.38 0 0 Z " fill="#EE8746" transform="translate(440,240)"/>
<path d="M0 0 C0 42.57 0 85.14 0 129 C-5.28 129 -10.56 129 -16 129 C-16.34873193 114.39611902 -16.61566292 99.79313626 -16.77718258 85.18591976 C-16.85420934 78.40171136 -16.95900225 71.62015246 -17.1315918 64.83764648 C-17.29831482 58.28250401 -17.38445257 51.72906975 -17.42315865 45.17190742 C-17.4507121 42.68026172 -17.50452305 40.18875329 -17.58595085 37.69828606 C-18.26160104 16.16178735 -18.26160104 16.16178735 -10.57968235 7.84788609 C-2.29697817 0 -2.29697817 0 0 0 Z " fill="#EE8646" transform="translate(360,300)"/>
<path d="M0 0 C2.31 1.98 4.62 3.96 7 6 C8.29512969 7.06627451 8.29512969 7.06627451 9.61642361 8.15408993 C13.81358536 11.88921481 16.50256796 14.6464178 17.08229065 20.37220764 C17.10807654 22.37966612 17.08511892 24.38815233 17.02172852 26.39477539 C17.02304276 27.4982431 17.02435699 28.60171082 17.02571106 29.73861694 C17.01947635 33.35995819 16.94964905 36.97705 16.87890625 40.59765625 C16.86210737 43.11825789 16.84930225 45.63888904 16.84031677 48.15953064 C16.80955023 54.0991678 16.73873865 60.03745785 16.64817137 65.97640461 C16.54724512 72.74289696 16.4980091 79.50946492 16.45291245 86.27652371 C16.35907527 100.18520599 16.19914861 114.09246264 16 128 C10.72 128 5.44 128 0 128 C0 85.76 0 43.52 0 0 Z " fill="#EF8646" transform="translate(296,301)"/>
<path d="M0 0 C3.65649858 1.82824929 5.79493659 3.4535958 8.75 6.1875 C11.85188651 9.03886704 14.97105114 11.84137173 18.1875 14.5625 C25.96497757 21.37557035 31.90730398 29.71061766 38 38 C33.92453949 43.78185251 29.36059997 48.95803848 24.56640625 54.15234375 C22.15493271 56.82808836 19.87821765 59.56563425 17.625 62.375 C14.06111765 66.78833817 10.33975824 71.01513737 6.5 75.1875 C5.97100098 75.76483887 5.44200195 76.34217773 4.89697266 76.93701172 C3.62028636 78.31238716 2.3130214 79.65926873 1 81 C0.67 81 0.34 81 0 81 C0 54.27 0 27.54 0 0 Z " fill="#3D9AE1" transform="translate(336,86)"/>
<path d="M0 0 C5.28 0 10.56 0 16 0 C16.33 31.68 16.66 63.36 17 96 C11.30144718 94.44584923 5.60357029 92.86785676 0 91 C0 60.97 0 30.94 0 0 Z " fill="#EE8746" transform="translate(392,240)"/>
<path d="M0 0 C15.84 0 31.68 0 48 0 C48 7.60020443 47.28931307 11.49780863 42.12890625 16.9921875 C35.18221806 23.32168411 29.81222585 24.48068378 20.4453125 24.3046875 C13.54297254 23.69427648 9.75792671 21.07439822 5.125 16.0625 C0.51723048 10.37363649 0 7.6231861 0 0 Z " fill="#3D3C41" transform="translate(416,464)"/>
<path d="M0 0 C15.84 0 31.68 0 48 0 C48 7.60020443 47.28931307 11.49780863 42.12890625 16.9921875 C35.18221806 23.32168411 29.81222585 24.48068378 20.4453125 24.3046875 C13.54297254 23.69427648 9.75792671 21.07439822 5.125 16.0625 C0.51723048 10.37363649 0 7.6231861 0 0 Z " fill="#3D3C41" transform="translate(280,464)"/>
<path d="M0 0 C5.28 0 10.56 0 16 0 C18.42649299 26.763319 18.42649299 26.763319 12.6953125 34.265625 C9.20547143 37.97572549 5.3473569 41.32607287 1 44 C0.67 44 0.34 44 0 44 C0 29.48 0 14.96 0 0 Z " fill="#EE8646" transform="translate(296,240)"/>
<path d="M0 0 C1.90968795 2.86453192 2.71681837 4.96159972 3.69921875 8.21875 C4.02212891 9.23324219 4.34503906 10.24773437 4.67773438 11.29296875 C5.34917315 13.42546868 6.00295583 15.56361084 6.63867188 17.70703125 C6.96802734 18.72152344 7.29738281 19.73601562 7.63671875 20.78125 C7.92248779 21.71001953 8.20825684 22.63878906 8.50268555 23.59570312 C10.23709301 26.89148345 10.23709301 26.89148345 17 29 C16.67 37.58 16.34 46.16 16 55 C10.72 55 5.44 55 0 55 C0 36.85 0 18.7 0 0 Z " fill="#ED8747" transform="translate(392,374)"/>
<path d="M0 0 C0 5.94 0 11.88 0 18 C-6.93 18 -13.86 18 -21 18 C-15.37136205 11.24563446 -15.37136205 11.24563446 -12.0625 8.4375 C-11.03962891 7.56738281 -11.03962891 7.56738281 -9.99609375 6.6796875 C-9.33738281 6.12539062 -8.67867187 5.57109375 -8 5 C-7.41347656 4.48695312 -6.82695313 3.97390625 -6.22265625 3.4453125 C-2.24205508 0 -2.24205508 0 0 0 Z " fill="#3C9BE2" transform="translate(112,86)"/>
<path d="M0 0 C3.63 0 7.26 0 11 0 C11 3.63 11 7.26 11 11 C6.84641746 7.56530675 3.21124658 4.36729534 0 0 Z " fill="#EF8646" transform="translate(349,240)"/>
</svg>
